<?xml version="1.0" encoding="utf-8"?>
<!-- Generator: Adobe Illustrator 22.1.0, SVG Export Plug-In . SVG Version: 6.00 Build 0)  -->
<svg version="1.1" id="Layer_1" xmlns="http://www.w3.org/2000/svg" xmlns:xlink="http://www.w3.org/1999/xlink" x="0px" y="0px"
	 viewBox="0 0 964 767.5" style="enable-background:new 0 0 964 767.5;" xml:space="preserve">
<style type="text/css">
	.st0{fill:#FFFFFF;}
</style>
<title>serverbot</title>
<g>
	<path class="st0" d="M444.6,216l-22.7-25.8c8-24.7,2.4-51.8-14.7-71.3c-26.8-30.4-73.5-33.5-103.8-6.8s-33.1,73.4-6.3,103.8
		c17.5,19.9,44.3,28.8,70.2,23.3l23.7,26.9C405.7,246.4,423.9,229.4,444.6,216z"/>
	<path class="st0" d="M636.2,176.4L623.6,126c18.4-18.3,25.8-44.9,19.6-70.2c-9.9-39.3-50-63.4-89.2-53.6s-63.1,50-53.2,89.3
		c6.4,25.7,26.2,45.9,51.8,52.9l8,31.9c13-1.5,26.1-2.2,39.1-2.2C611.9,174.2,624.1,174.9,636.2,176.4z"/>
	<path class="st0" d="M815.6,370.3C790.5,276,701.2,206.2,595,206.2c-89.2,0-166.4,49.2-203.8,120.8
		c-30.6-17.4-65.3-26.6-100.5-26.6C178.2,300.5,87,391.7,87,504.1c0,17.5,2.2,34.9,6.7,51.9c-58.2,6.9-99.8,59.7-92.9,117.9
		c6.3,53.4,51.6,93.6,105.3,93.6h655.5C873.4,767.5,964,677,964,565.2C964,472.2,901.1,393.9,815.6,370.3z M583.8,581
		c-0.1,20.9-17,37.9-37.9,37.9H470c-21,0-37.9-17-38-37.9v-75.9c0-21,17-37.9,38-37.9h75.9c20.9,0,37.9,17,37.9,37.9L583.8,581
		L583.8,581z M836.7,581c-0.1,20.9-17,37.9-37.9,37.9h-75.9c-20.9-0.1-37.9-17-37.9-37.9v-75.9c0-20.9,17-37.9,37.9-37.9h75.9
		c20.9,0.1,37.9,17,37.9,37.9V581z"/>
</g>
</svg>
