<svg xmlns="http://www.w3.org/2000/svg" width="40" height="40" viewBox="0 0 40 40">
    <g fill="none" fill-rule="evenodd">
        <path d="M0 0h40v40H0z"/>
        <g fill-rule="nonzero">
            <path fill="#ED7899" d="M28.56 26.875v10.681c.01.417-.189.811-.527 1.05-.339.24-.773.294-1.16.144l-5.48-2.125a2.51 2.51 0 0 0-1.786 0l-5.48 2.125c-.387.15-.821.097-1.16-.143a1.253 1.253 0 0 1-.527-1.05V26.874h16.12z"/>
            <path fill="#F6D397" d="M21.281 1.25l2.065 1.688c.273.222.627.317.973.262l2.629-.419a1.239 1.239 0 0 1 1.352.788l.954 2.5c.126.33.385.592.713.718l2.48.963c.547.211.873.78.782 1.363l-.416 2.65c-.055.349.04.706.26.98l1.687 2.095c.37.458.37 1.116 0 1.575l-1.674 2.08c-.22.276-.315.633-.26.982l.415 2.65a1.251 1.251 0 0 1-.781 1.363l-2.48.962a1.245 1.245 0 0 0-.713.719l-.955 2.5c-.21.551-.773.88-1.352.787l-2.628-.418c-.347-.056-.7.04-.974.262L21.281 30a1.232 1.232 0 0 1-1.562 0l-2.065-1.688a1.233 1.233 0 0 0-.973-.262l-2.629.419a1.239 1.239 0 0 1-1.352-.788l-.954-2.5a1.245 1.245 0 0 0-.713-.719l-2.48-.962a1.251 1.251 0 0 1-.782-1.363l.416-2.65c.055-.349-.04-.706-.26-.98L6.24 16.411a1.258 1.258 0 0 1 0-1.574l1.674-2.082c.22-.275.315-.632.26-.981l-.415-2.65a1.251 1.251 0 0 1 .781-1.362l2.48-.963c.328-.127.587-.388.713-.719l.955-2.5c.21-.556.781-.886 1.364-.787l2.629.418c.346.056.7-.04.973-.262l2.065-1.7a1.232 1.232 0 0 1 1.562 0z"/>
            <path fill="#E0678F" d="M28.56 26.988v3.125l-.26.68c-.21.552-.774.88-1.352.788l-2.629-.418c-.346-.056-.7.04-.973.262l-2.065 1.7a1.232 1.232 0 0 1-1.562 0l-2.065-1.688a1.233 1.233 0 0 0-.973-.262l-2.629.419a1.239 1.239 0 0 1-1.352-.788l-.26-.694v-3.124l.26.68c.21.552.774.88 1.352.788l2.629-.418c.346-.056.7.04.973.262L19.72 30a1.232 1.232 0 0 0 1.562 0l2.065-1.688c.273-.222.627-.317.973-.262l2.629.419a1.239 1.239 0 0 0 1.352-.788l.26-.694z"/>
            <path fill="#F9E3AE" d="M28.56 15.625c0 2.155-.85 4.222-2.36 5.745a8.027 8.027 0 0 1-5.7 2.38 7.903 7.903 0 0 1-2.647-.45 8.061 8.061 0 0 1-3.634-2.594 8.134 8.134 0 0 1-.967-1.525 8.368 8.368 0 0 1-.812-3.556c0-4.487 3.609-8.125 8.06-8.125a8.191 8.191 0 0 1 3.528.819 8.052 8.052 0 0 1 1.513.975 8.124 8.124 0 0 1 3.019 6.331z"/>
            <path fill="#FFEFCA" d="M28.56 15.625c0 2.155-.85 4.222-2.36 5.745a8.027 8.027 0 0 1-5.7 2.38 7.903 7.903 0 0 1-2.647-.45l10.26-10.344c.298.858.45 1.76.447 2.669zM27.32 11.25L16.16 22.5a7.834 7.834 0 0 1-1.96-1.775L25.54 9.294a7.852 7.852 0 0 1 1.78 1.956zM24.028 8.319L13.252 19.18a8.054 8.054 0 0 1-.725-2.393l9.126-9.2a7.896 7.896 0 0 1 2.375.73z"/>
            <path fill="#FFF8F8" d="M24.01 12.975l-.77 1.412-1.4.775 1.4.775.77 1.42.768-1.42 1.401-.774-1.401-.776zM17.859 10.481l-.527.975-.974.532.974.537.527.975.533-.975.967-.537-.967-.532zM17.902 17.794l-.36.668-.663.363.664.363.36.668.359-.669.663-.362-.663-.363z"/>
            <path fill="#425080" d="M35.231 16.806a1.887 1.887 0 0 0 0-2.362l-1.674-2.082a.629.629 0 0 1-.13-.493l.415-2.65a1.877 1.877 0 0 0-1.171-2.044l-2.48-.962a.623.623 0 0 1-.36-.363l-.955-2.5a1.858 1.858 0 0 0-2.027-1.181l-2.629.425a.616.616 0 0 1-.49-.131L21.666.774a1.848 1.848 0 0 0-2.344 0l-2.065 1.688a.616.616 0 0 1-.49.13l-2.628-.418a1.858 1.858 0 0 0-2.028 1.181l-.954 2.5a.623.623 0 0 1-.36.363l-2.48.962a1.877 1.877 0 0 0-1.172 2.044l.428 2.65a.629.629 0 0 1-.13.494L5.769 14.45a1.887 1.887 0 0 0 0 2.363l1.674 2.08a.629.629 0 0 1 .13.494l-.415 2.65a1.877 1.877 0 0 0 1.171 2.044l2.48.963a.623.623 0 0 1 .36.362l.651 1.694v10.456c0 .618.302 1.197.808 1.547.505.35 1.15.426 1.722.203l5.487-2.125c.429-.166.904-.166 1.333 0l5.487 2.125c.571.22 1.213.143 1.717-.207a1.88 1.88 0 0 0 .806-1.543V27.1l.651-1.713a.623.623 0 0 1 .36-.362l2.48-.962a1.877 1.877 0 0 0 1.171-2.044l-.415-2.644a.629.629 0 0 1 .13-.494l1.674-2.075zm-7.558 21.25a.616.616 0 0 1-.57.069L21.616 36a3.077 3.077 0 0 0-2.226 0l-5.487 2.125a.616.616 0 0 1-.568-.064.626.626 0 0 1-.275-.505v-8.65c.338.167.719.225 1.091.169l2.629-.419a.616.616 0 0 1 .49.132l2.064 1.687c.683.559 1.661.559 2.344 0l2.065-1.688a.616.616 0 0 1 .49-.13l2.628.418c.368.054.744-.005 1.079-.169v8.65c0 .205-.1.396-.267.513v-.013zm4.917-19.931c-.332.414-.474.95-.39 1.475l.415 2.65a.626.626 0 0 1-.39.681l-2.48.963c-.495.19-.885.583-1.073 1.081l-.955 2.5a.62.62 0 0 1-.676.394l-2.629-.419a1.849 1.849 0 0 0-1.432.363L20.915 29.5a.616.616 0 0 1-.78 0l-2.115-1.688a1.85 1.85 0 0 0-1.463-.393l-2.629.418a.62.62 0 0 1-.676-.393l-.955-2.5a1.868 1.868 0 0 0-1.072-1.081l-2.48-.963a.626.626 0 0 1-.39-.681l.415-2.65a1.886 1.886 0 0 0-.36-1.444l-1.674-2.106a.629.629 0 0 1 0-.788l1.674-2.106c.332-.414.474-.95.39-1.475L8.386 9a.626.626 0 0 1 .39-.681l2.48-.963c.495-.19.885-.583 1.073-1.081l.955-2.5a.62.62 0 0 1 .676-.394l2.629.419a1.849 1.849 0 0 0 1.432-.362l2.065-1.688a.616.616 0 0 1 .78 0l2.115 1.688c.41.334.942.477 1.463.393l2.629-.418a.62.62 0 0 1 .676.393l.955 2.5c.188.498.578.891 1.072 1.082l2.48.962c.274.106.437.39.39.681l-.415 2.65c-.082.51.048 1.033.36 1.444l1.674 2.081a.629.629 0 0 1 0 .788l-1.674 2.131z"/>
            <path fill="#425080" d="M21.33 6.912a8.636 8.636 0 0 0-6.668 2.235 8.782 8.782 0 0 0-2.842 6.478c0 .345.278.625.62.625.342 0 .62-.28.62-.625 0-2.114.886-4.129 2.439-5.55a7.402 7.402 0 0 1 5.714-1.912c.34.032.643-.22.676-.563a.628.628 0 0 0-.137-.461.619.619 0 0 0-.421-.227zM27.103 10.919a.628.628 0 0 0-.21.856 7.591 7.591 0 0 1 .514 6.662.628.628 0 0 0 .344.816.62.62 0 0 0 .809-.347 8.862 8.862 0 0 0-.62-7.768.617.617 0 0 0-.837-.22zM25.714 10.05a.62.62 0 0 0 .582-.408.628.628 0 0 0-.179-.692c-.479-.41-1-.766-1.556-1.062a.617.617 0 0 0-.62.022.628.628 0 0 0 .037 1.084c.476.254.923.56 1.333.912a.617.617 0 0 0 .403.144zM26.198 20.488a.616.616 0 0 0-.842.032.629.629 0 0 0-.032.849l.874.881a.616.616 0 0 0 .841-.033c.23-.23.244-.6.033-.848l-.874-.881zM14.802 20.488l-.874.88a.628.628 0 0 0 .258 1.083.617.617 0 0 0 .616-.201l.874-.881a.629.629 0 0 0-.032-.849.616.616 0 0 0-.842-.032zM20.5 22.5c-.342 0-.62.28-.62.625v1.25c0 .345.278.625.62.625.342 0 .62-.28.62-.625v-1.25a.623.623 0 0 0-.62-.625zM17.834 21.956a.618.618 0 0 0-.812.332l-.484 1.15a.63.63 0 0 0 .061.635.618.618 0 0 0 1.08-.148l.484-1.15a.627.627 0 0 0-.329-.819zM14.176 18.2a.618.618 0 0 0-.806-.344l-1.147.469a.627.627 0 0 0-.174 1.093c.185.14.431.164.639.063l1.147-.469a.627.627 0 0 0 .341-.812zM23.86 22.344a.618.618 0 1 0-1.084-.175.63.63 0 0 0-.063.644l.465 1.156a.618.618 0 1 0 1.084.175.63.63 0 0 0 .063-.644l-.465-1.156z"/>
        </g>
    </g>
</svg>
