<?xml version="1.0" encoding="UTF-8" standalone="no"?>
<svg width="40px" height="40px" viewBox="0 0 40 40" version="1.1" xmlns="http://www.w3.org/2000/svg" xmlns:xlink="http://www.w3.org/1999/xlink">
    <!-- Generator: Sketch 48.2 (47327) - http://www.bohemiancoding.com/sketch -->
    <title>new</title>
    <desc>Created with Sketch.</desc>
    <defs></defs>
    <g id="Artboard" stroke="none" stroke-width="1" fill="none" fill-rule="evenodd" transform="translate(-1322.000000, -1471.000000)">
        <g id="new" transform="translate(1322.000000, 1471.000000)" fill-rule="nonzero">
            <path d="M36.0257058,23.4576613 C35.6728832,23.8961697 35.5191535,24.4632058 35.6073587,25.0201613 L36.2197581,28.891129 C36.2752019,29.201109 36.0987903,29.5060484 35.798891,29.6118955 L32.1471774,31.0131052 C31.6204639,31.2147181 31.2046374,31.6280245 31.0005039,32.1547381 L29.5992942,35.8064516 C29.4934477,36.103831 29.1885084,36.2827619 28.8785284,36.2247987 L25.0075606,35.6123994 C24.4506052,35.5267135 23.8835684,35.6779232 23.4450606,36.0332665 L20.4057458,38.4904232 C20.166331,38.6920361 19.8135084,38.6920361 19.5740929,38.4904232 L16.5347781,36.0332665 C16.0987903,35.6779232 15.5292342,35.5267135 14.9747987,35.6123994 L11.103831,36.2247987 C10.791331,36.2827619 10.486391,36.103831 10.3805445,35.8064516 L8.98185484,32.1547381 C8.78024194,31.6280245 8.36441548,31.2096774 7.83770194,31.0055445 L4.20110903,29.6068548 C3.90120968,29.5010084 3.72479871,29.1960684 3.78024194,28.8835684 L4.39264129,25.0126006 C4.4808471,24.4556452 4.32711677,23.888609 3.97429419,23.4526213 L1.51713742,20.4183471 C1.31300387,20.1789316 1.31300387,19.828629 1.51713742,19.5866935 L3.97429419,16.5473794 C4.32711677,16.111391 4.4808471,15.5443548 4.39264129,14.9873994 L3.78024194,11.1164316 C3.72479871,10.8039316 3.90120968,10.4989923 4.20110903,10.3931452 L7.85282258,8.99445548 C8.37953613,8.79284258 8.79536323,8.37701613 8.99949613,7.85282258 L10.4007058,4.20110903 C10.5065523,3.90120968 10.8114923,3.72479871 11.1214716,3.78024194 L14.9924394,4.39264129 C15.5493955,4.4808471 16.1164316,4.32711677 16.5549394,3.97429419 L19.5942542,1.51713742 C19.8336697,1.31300387 20.1864923,1.31300387 20.4259071,1.51713742 L23.4652219,3.97429419 C23.9012097,4.32711677 24.4707665,4.4808471 25.0252019,4.39264129 L28.8961697,3.78024194 C29.2086697,3.72479871 29.513609,3.90120968 29.6194555,4.20110903 L31.0181452,7.85282258 C31.2197581,8.37953613 31.6355845,8.79536323 32.1622987,8.99949613 L35.8140123,10.4007058 C36.111391,10.5065523 36.2878026,10.8114923 36.2323587,11.1214716 L35.61996,14.9924394 C35.5317542,15.5493955 35.6854839,16.1164316 36.0383065,16.5549394 L38.4979839,19.5942542 C38.6995968,19.8336697 38.6995968,20.1864923 38.4979839,20.4259071 L36.0257058,23.4576613 Z" id="Shape" fill="#ED7899"></path>
            <path d="M32.2580645,20 C32.2580645,26.7691535 26.7691535,32.2580645 20,32.2580645 C13.2308471,32.2580645 7.74193548,26.7691535 7.74193548,20 C7.74193548,13.2308471 13.2308471,7.74193548 20,7.74193548 C26.7691535,7.74193548 32.2580645,13.2308471 32.2580645,20 Z" id="Shape" fill="#F283A5"></path>
            <path d="M20,30.9677419 C19.6446574,30.9677419 19.3548387,31.2575606 19.3548387,31.6129032 L19.3548387,32.9032258 C19.3548387,33.2585684 19.6446574,33.5483871 20,33.5483871 C20.3553426,33.5483871 20.6451613,33.2585684 20.6451613,32.9032258 L20.6451613,31.6129032 C20.6451613,31.2575606 20.3553426,30.9677419 20,30.9677419 Z" id="Shape" fill="#425080"></path>
            <path d="M20,9.03225806 C20.3553426,9.03225806 20.6451613,8.74243935 20.6451613,8.38709677 L20.6451613,7.09677419 C20.6451613,6.74143161 20.3553426,6.4516129 20,6.4516129 C19.6446574,6.4516129 19.3548387,6.74143161 19.3548387,7.09677419 L19.3548387,8.38709677 C19.3548387,8.74243935 19.6446574,9.03225806 20,9.03225806 Z" id="Shape" fill="#425080"></path>
            <path d="M11.3281252,27.7419355 L10.4183471,28.6517135 C10.2343748,28.8104839 10.1562503,29.05746 10.2116935,29.2918348 C10.2696574,29.5287297 10.453629,29.7127019 10.6880039,29.7681452 C10.9248994,29.826109 11.1718748,29.7454639 11.3281252,29.5614923 L12.2580645,28.6718748 C12.5151213,28.4148187 12.5151213,27.9989923 12.2580645,27.7419355 C12.0010084,27.4848794 11.5851813,27.4848794 11.3281252,27.7419355 Z" id="Shape" fill="#425080"></path>
            <path d="M28.2132058,12.4319555 C28.3845768,12.4344761 28.5483871,12.3664316 28.6718748,12.2454639 L29.5816535,11.3356858 C29.8009071,11.078629 29.7857865,10.6980845 29.546371,10.4586697 C29.3094761,10.2217742 28.9264116,10.2066535 28.6718748,10.4259071 L27.7419355,11.3281252 C27.5554439,11.5146168 27.5,11.7918348 27.6008065,12.0337703 C27.7016129,12.2757058 27.9385084,12.4344761 28.2006052,12.4319555 L28.2132058,12.4319555 Z" id="Shape" fill="#425080"></path>
            <path d="M28.6718748,27.7419355 C28.4148187,27.4848794 27.9989923,27.4848794 27.7419355,27.7419355 C27.4848794,27.9989923 27.4848794,28.4148187 27.7419355,28.6718748 L28.6517135,29.5816535 C28.9087703,29.8009071 29.2893148,29.7857865 29.5262097,29.546371 C29.7656252,29.3094761 29.7807458,28.9264116 29.5614923,28.6718748 L28.6718748,27.7419355 Z" id="Shape" fill="#425080"></path>
            <path d="M11.3281252,12.2580645 C11.5851813,12.5151213 12.0010084,12.5151213 12.2580645,12.2580645 C12.5151213,12.0010084 12.5151213,11.5851813 12.2580645,11.3281252 L11.3482865,10.4183471 C11.0912297,10.1990929 10.7106858,10.2142135 10.4737903,10.453629 C10.2343748,10.6905245 10.2192542,11.073589 10.4385084,11.3281252 L11.3281252,12.2580645 Z" id="Shape" fill="#425080"></path>
            <path d="M23.6265123,31.0509071 C23.5231858,30.7182458 23.1779232,30.5267135 22.8402219,30.6174394 C22.5050406,30.7081652 22.3009071,31.0483871 22.3815523,31.386089 L22.7167342,32.6310484 C22.7696574,32.8629032 22.9435484,33.0443548 23.1703632,33.1073587 C23.3971774,33.1703632 23.6416329,33.1048387 23.8054439,32.9359877 C23.9717742,32.7671374 24.0297381,32.5226813 23.9616935,32.2958671 L23.6265123,31.0509071 Z" id="Shape" fill="#425080"></path>
            <path d="M16.3734877,8.9490929 C16.4768148,9.28175419 16.8220768,9.47328645 17.1597781,9.38256065 C17.49496,9.29183484 17.6990929,8.9516129 17.6184477,8.61391161 L17.2832665,7.36895161 C17.2303426,7.13709677 17.0564516,6.95564516 16.8296374,6.89264129 C16.6028226,6.82963742 16.3583671,6.89516129 16.1945568,7.06401226 C16.0282258,7.23286323 15.9702619,7.47731871 16.0383065,7.7041329 L16.3734877,8.9490929 Z" id="Shape" fill="#425080"></path>
            <path d="M14.516129,29.4959677 C14.3674394,29.4102826 14.1910284,29.3876006 14.0246974,29.4329639 C13.8583671,29.4758065 13.7172381,29.5866935 13.6315523,29.7353832 L12.986391,30.8518148 C12.8276213,31.1567542 12.9359877,31.5372987 13.2358871,31.7086697 C13.5357865,31.8825606 13.918851,31.7893148 14.1028226,31.4969761 L14.7479839,30.3805445 C14.8361897,30.2318548 14.858871,30.0554439 14.8160284,29.8916329 C14.7731858,29.7253026 14.6648187,29.5841735 14.516129,29.4959677 Z" id="Shape" fill="#425080"></path>
            <path d="M25.483871,10.5040323 C25.6325606,10.5897181 25.8089716,10.6123994 25.9753026,10.5670361 C26.1416329,10.5241935 26.2827619,10.4133065 26.3684477,10.2646168 L27.013609,9.14818581 C27.1396168,8.9490929 27.1471774,8.69455677 27.0312503,8.48790323 C26.9153226,8.28125032 26.6960684,8.15272194 26.4591735,8.15776194 C26.2222781,8.16028258 26.0055445,8.29385097 25.8971774,8.50302452 L25.2520161,9.61945548 C25.1638103,9.76814516 25.141129,9.94455677 25.1839716,10.1083671 C25.2268148,10.2746974 25.3351813,10.4158265 25.483871,10.5040323 Z" id="Shape" fill="#425080"></path>
            <path d="M26.3684477,29.7353832 C26.1819555,29.4430445 25.798891,29.3497987 25.5015123,29.5236897 C25.2016129,29.6950606 25.0907258,30.0730845 25.2520161,30.3805445 L25.8971774,31.4969761 C26.0055445,31.706149 26.2222781,31.8397181 26.4591735,31.8422381 C26.6960684,31.8472781 26.9153226,31.7187503 27.0312503,31.5120968 C27.1471774,31.3054439 27.1396168,31.0509071 27.013609,30.8518148 L26.3684477,29.7353832 Z" id="Shape" fill="#425080"></path>
            <path d="M14.1103832,8.50302452 C13.923891,8.21068581 13.5408265,8.11743935 13.2434477,8.29133097 C12.9435484,8.46270194 12.8326613,8.84324581 12.9939516,9.14818581 L13.6391129,10.2646168 C13.8230845,10.5569555 14.206149,10.6502019 14.5060484,10.4763103 C14.8059477,10.3049394 14.9143148,9.92691548 14.7555445,9.61945548 L14.1103832,8.50302452 Z" id="Shape" fill="#425080"></path>
            <path d="M17.1622987,30.5947581 C16.8170361,30.5040323 16.4667342,30.7081652 16.3734877,31.0509071 L16.0383065,32.2958671 C15.9702619,32.5226813 16.0282258,32.7671374 16.1945568,32.9359877 C16.3583671,33.1048387 16.6028226,33.1703632 16.8296374,33.1073587 C17.0564516,33.0443548 17.2303426,32.8629032 17.2832665,32.6310484 L17.6184477,31.386089 C17.6638103,31.2222781 17.641129,31.0433471 17.5554439,30.8946574 C17.4697581,30.7459677 17.328629,30.6376006 17.1622987,30.5947581 Z" id="Shape" fill="#425080"></path>
            <path d="M22.8377019,9.40524194 C23.1829639,9.49596774 23.5332665,9.29183484 23.6265123,8.9490929 L23.9616935,7.7041329 C24.0297381,7.47731871 23.9717742,7.23286323 23.8054439,7.06401226 C23.6416329,6.89516129 23.3971774,6.82963742 23.1703632,6.89264129 C22.9435484,6.95564516 22.7696574,7.13709677 22.7167342,7.36895161 L22.3815523,8.61391161 C22.3361897,8.77772194 22.358871,8.95665355 22.4445568,9.10534258 C22.5302419,9.25403226 22.671371,9.36239935 22.8377019,9.40524194 Z" id="Shape" fill="#425080"></path>
            <path d="M38.9818548,21.2197581 C39.5564516,20.5090729 39.5564516,19.4909277 38.9818548,18.7802419 L36.5877019,15.8266129 C36.4717742,15.6829639 36.421371,15.4964716 36.4516129,15.31502 L37.046371,11.5625 C37.1875,10.6577619 36.6784277,9.77822581 35.8266129,9.45060516 L32.2580645,8.08971806 C32.0866935,8.02419355 31.9506052,7.88810516 31.8850806,7.71673419 L30.5216735,4.1683471 C30.1965729,3.31401226 29.3170361,2.80493935 28.4122987,2.94858903 L24.6572581,3.54082645 C24.4758065,3.57106839 24.2918348,3.52318581 24.1481858,3.40725806 L21.2197581,1.01814516 C20.5090729,0.443548387 19.4909277,0.443548387 18.7802419,1.01814516 L15.8266129,3.41229871 C15.6829639,3.52822581 15.4964716,3.57862903 15.31502,3.5483871 L11.5625,2.95362903 C10.6577619,2.8125 9.77822581,3.3215729 9.45060516,4.1733871 L8.08971806,7.74193548 C8.02419355,7.91330645 7.88810516,8.04939548 7.71673419,8.11491935 L4.1683471,9.47832645 C3.31401226,9.80342774 2.80493935,10.6829639 2.94858903,11.5877019 L3.54082645,15.3427419 C3.57106839,15.5241935 3.52318581,15.7081652 3.40725806,15.8518148 L1.01814516,18.7802419 C0.443548387,19.4909277 0.443548387,20.5090729 1.01814516,21.2197581 L3.41229871,24.1733871 C3.52822581,24.3170361 3.57862903,24.5035284 3.5483871,24.68498 L2.95362903,28.4375 C2.8125,29.3422381 3.3215729,30.2217742 4.1733871,30.5493955 L7.74193548,31.9102826 C7.91330645,31.9758065 8.04939548,32.1118955 8.11491935,32.2832665 L9.47832645,35.8316535 C9.80342774,36.6859877 10.6829639,37.1950606 11.5877019,37.0514116 L15.3427419,36.4591735 C15.5241935,36.4289316 15.7081652,36.4768148 15.8518148,36.5927419 L18.8054439,38.9868955 C19.516129,39.5640123 20.5342742,39.5640123 21.24496,38.9868955 L24.201109,36.5927419 C24.3422381,36.4768148 24.5287297,36.4289316 24.7101813,36.4591735 L28.4652219,37.0514116 C29.3674394,37.1950606 30.2469761,36.6859877 30.5745968,35.8316535 L31.9102826,32.2580645 C31.9758065,32.0866935 32.1118955,31.9506052 32.2832665,31.8850806 L35.8316535,30.5216735 C36.6859877,30.1965729 37.1950606,29.3170361 37.0514116,28.4122987 L36.4591735,24.6572581 C36.4289316,24.4758065 36.4768148,24.2918348 36.5927419,24.1481858 L38.9818548,21.2197581 Z M35.5871974,23.3618955 C35.2419355,23.7878026 35.0932458,24.3422381 35.1814516,24.8840729 L35.7736897,28.6391129 C35.8215729,28.9390123 35.6527219,29.233871 35.3679439,29.3422381 L31.8195568,30.7031252 C31.3054439,30.8996974 30.8996974,31.3054439 30.7031252,31.8195568 L29.3422381,35.3679439 C29.233871,35.6527219 28.9390123,35.8215729 28.6391129,35.7736897 L24.8840729,35.1814516 C24.3422381,35.0932458 23.7878026,35.2419355 23.3618955,35.5871974 L20.4057458,37.981351 C20.168851,38.1728832 19.831149,38.1728832 19.5942542,37.981351 L16.6381052,35.5871974 C16.2121974,35.2419355 15.6577619,35.0932458 15.1159277,35.1814516 L11.3608871,35.7736897 C11.0609877,35.8215729 10.766129,35.6527219 10.6577619,35.3679439 L9.29687484,31.8195568 C9.10030258,31.3054439 8.69455677,30.8996974 8.18044387,30.7031252 L4.63205677,29.3422381 C4.34727806,29.233871 4.17842774,28.9390123 4.22631032,28.6391129 L4.81854839,24.8840729 C4.90675419,24.3422381 4.75806452,23.7878026 4.41280258,23.3618955 L2.01864903,20.4057458 C1.82711677,20.168851 1.82711677,19.831149 2.01864903,19.5942542 L4.41280258,16.6381052 C4.75806452,16.2121974 4.90675419,15.6577619 4.81854839,15.1159277 L4.22631032,11.3608871 C4.17842774,11.0609877 4.34727806,10.766129 4.63205677,10.6577619 L8.18044387,9.29687484 C8.69455677,9.10030258 9.10030258,8.69455677 9.29687484,8.18044387 L10.6577619,4.63205677 C10.766129,4.34727806 11.0609877,4.17842774 11.3608871,4.22631032 L15.1159277,4.81854839 C15.6577619,4.90675419 16.2121974,4.75806452 16.6381052,4.41280258 L19.5942542,2.01864903 C19.831149,1.82711677 20.168851,1.82711677 20.4057458,2.01864903 L23.3618955,4.41280258 C23.7878026,4.75806452 24.3422381,4.90675419 24.8840729,4.81854839 L28.6391129,4.22631032 C28.9390123,4.17842774 29.233871,4.34727806 29.3422381,4.63205677 L30.7031252,8.18044387 C30.8996974,8.69455677 31.3054439,9.10030258 31.8195568,9.29687484 L35.3679439,10.6577619 C35.6527219,10.766129 35.8215729,11.0609877 35.7736897,11.3608871 L35.1814516,15.1159277 C35.0932458,15.6577619 35.2419355,16.2121974 35.5871974,16.6381052 L37.981351,19.5942542 C38.1728832,19.831149 38.1728832,20.168851 37.981351,20.4057458 L35.5871974,23.3618955 Z" id="Shape" fill="#425080"></path>
            <path d="M21.2903226,16.1290323 C21.6456652,16.1290323 21.9354839,15.8392135 21.9354839,15.483871 C21.9354839,15.1285284 21.6456652,14.8387097 21.2903226,14.8387097 L16.7741935,14.8387097 C16.418851,14.8387097 16.1290323,15.1285284 16.1290323,15.483871 L16.1290323,24.516129 C16.1290323,24.8714716 16.418851,25.1612903 16.7741935,25.1612903 L21.2903226,25.1612903 C21.6456652,25.1612903 21.9354839,24.8714716 21.9354839,24.516129 C21.9354839,24.1607865 21.6456652,23.8709677 21.2903226,23.8709677 L17.4193548,23.8709677 L17.4193548,20 L20.6451613,20 C21.0005039,20 21.2903226,19.7101813 21.2903226,19.3548387 C21.2903226,18.9994961 21.0005039,18.7096774 20.6451613,18.7096774 L17.4193548,18.7096774 L17.4193548,16.1290323 L21.2903226,16.1290323 Z" id="Shape" fill="#F9EFDE"></path>
            <path d="M13.5483871,24.516129 L13.5483871,15.483871 C13.5483871,15.1285284 13.2585684,14.8387097 12.9032258,14.8387097 C12.5478832,14.8387097 12.2580645,15.1285284 12.2580645,15.483871 L12.2580645,22.0841735 L8.30393161,15.1612903 C8.15776194,14.9067542 7.85786323,14.7807458 7.57560516,14.856351 C7.29082645,14.9319555 7.09425419,15.1890123 7.09677419,15.483871 L7.09677419,24.516129 C7.09677419,24.8714716 7.3865929,25.1612903 7.74193548,25.1612903 C8.09727806,25.1612903 8.38709677,24.8714716 8.38709677,24.516129 L8.38709677,17.9158265 L12.3412297,24.8387097 C12.4571574,25.0403226 12.671371,25.1612903 12.9032258,25.1612903 C13.2585684,25.1612903 13.5483871,24.8714716 13.5483871,24.516129 Z" id="Shape" fill="#F9EFDE"></path>
            <path d="M32.3941535,14.8387097 C32.2253026,14.8034277 32.0514116,14.8336697 31.9052419,14.9269155 C31.7615929,15.0201613 31.6607865,15.168851 31.6255039,15.3351813 L30.2721774,21.6507058 L28.9818548,16.6053426 C28.9087703,16.3205645 28.6517135,16.1189516 28.3543348,16.1189516 C28.0594761,16.1189516 27.7998994,16.3205645 27.7293348,16.6053426 L26.4390123,21.6507058 L25.1612903,15.3477826 C25.0856858,14.9924394 24.7379032,14.7631052 24.3800406,14.8387097 C24.0246974,14.9143148 23.7953632,15.2620968 23.8709677,15.61996 L25.8064516,24.6522181 C25.8719761,24.9546374 26.1416329,25.168851 26.4516129,25.1612903 C26.7540323,25.171371 27.0236897,24.9647181 27.0967742,24.6698587 L28.3870968,19.4329639 L29.6774194,24.6698587 C29.7505039,24.9647181 30.0201613,25.171371 30.3225806,25.1612903 C30.6325606,25.168851 30.9022181,24.9546374 30.9677419,24.6522181 L32.9032258,15.61996 C32.9435484,15.448589 32.9107865,15.2671374 32.81502,15.1209677 C32.7192542,14.9722781 32.5655245,14.8714716 32.3941535,14.8387097 Z" id="Shape" fill="#F9EFDE"></path>
        </g>
    </g>
</svg>