<?xml version="1.0" encoding="UTF-8" standalone="no"?>
<svg
   xmlns:dc="http://purl.org/dc/elements/1.1/"
   xmlns:cc="http://creativecommons.org/ns#"
   xmlns:rdf="http://www.w3.org/1999/02/22-rdf-syntax-ns#"
   xmlns:svg="http://www.w3.org/2000/svg"
   xmlns="http://www.w3.org/2000/svg"
   id="svg883"
   version="1.1"
   viewBox="0 0 40 40"
   height="40px"
   width="40px">
  <metadata
     id="metadata887">
    <rdf:RDF>
      <cc:Work
         rdf:about="">
        <dc:format>image/svg+xml</dc:format>
        <dc:type
           rdf:resource="http://purl.org/dc/dcmitype/StillImage" />
        <dc:title>tag</dc:title>
      </cc:Work>
    </rdf:RDF>
  </metadata>
  <!-- Generator: Sketch 48.2 (47327) - http://www.bohemiancoding.com/sketch -->
  <title
     id="title852">tag</title>
  <desc
     id="desc854">Created with Sketch.</desc>
  <defs
     id="defs856" />
  <g
     transform="translate(-276.000000, -257.000000)"
     fill-rule="evenodd"
     fill="none"
     stroke-width="1"
     stroke="none"
     id="Artboard">
    <g
       fill-rule="nonzero"
       transform="translate(276.000000, 257.000000)"
       id="tag">
      <path
         fill="#72CAAF"
         id="Shape"
         d="M34.2485117,5.80357143 L19.784226,3.70783746 L0,23.4920635 L16.1904762,39.6825397 L35.9821429,19.890873 L34.2485117,5.80357143 Z M29.8412698,11.4285714 C28.965774,11.4285714 28.2539683,10.7167657 28.2539683,9.84126984 C28.2539683,8.96577397 28.965774,8.25396825 29.8412698,8.25396825 C30.7167657,8.25396825 31.4285714,8.96577397 31.4285714,9.84126984 C31.4285714,10.7167657 30.7167657,11.4285714 29.8412698,11.4285714 Z" />
      <path
         fill="#5DBC9D"
         id="path859"
         d="M34.2485117,5.80357143 L33.9608133,5.76388889 L30.9722222,8.75496063 C31.5897816,9.375 31.5897816,10.3769841 30.9722222,10.9970241 C30.3521829,11.6145835 29.3501987,11.6145835 28.7301587,10.9970241 L8.11507937,31.6071429 L16.1904762,39.6825397 L35.9821429,19.890873 L34.2485117,5.80357143 Z" />
      <polygon
         points="24.2212305 4.35019873 19.784226 3.70783746 0 23.4920635 2.53968254 26.031746"
         fill="#82D8BB"
         id="polygon861" />
      <path
         fill="#425080"
         id="path863"
         d="M3.65823429,21.6691467 L2.76289714,22.5719244 C2.50744063,22.8174603 2.50248,23.2242063 2.74801587,23.4796629 C2.99603175,23.7326387 3.40277778,23.7400794 3.65823429,23.4920635 L4.55357143,22.5967263 C4.7693454,22.3437498 4.75446413,21.9692463 4.51884952,21.7361111 C4.28571429,21.5004959 3.90873016,21.4856152 3.65823429,21.7013892 L3.65823429,21.6691467 Z" />
      <path
         fill="#425080"
         id="path865"
         d="M5.90525778,23.9186508 L5.00248,24.8115079 C4.75446413,25.0620038 4.75446413,25.4662698 5.00248,25.7142857 C5.25297651,25.9623016 5.6547619,25.9623016 5.90525778,25.7142857 L6.80059556,24.8189486 C7.01636889,24.5659721 7.00148825,24.1914686 6.76587302,23.9583333 C6.53273841,23.7227181 6.15575429,23.7078375 5.90525778,23.9236114 L5.90525778,23.9186508 Z" />
      <path
         fill="#425080"
         id="path867"
         d="M8.14484127,26.1582343 L7.25198413,27.0535714 C7.05357143,27.204861 6.96180571,27.4553575 7.01636889,27.6984127 C7.0709327,27.9414686 7.26190476,28.1299606 7.50496063,28.1795638 C7.74801587,28.231647 7.99851175,28.1374006 8.14484127,27.9365079 L9.04017841,27.0411708 C9.22123048,26.8849206 9.30059556,26.6418654 9.24603175,26.4112102 C9.18898794,26.1780756 9.00793651,25.9970241 8.7772819,25.9424603 C8.54414667,25.8854165 8.30109143,25.9647816 8.14484127,26.1458337 L8.14484127,26.1582343 Z" />
      <path
         fill="#425080"
         id="path869"
         d="M10.3943454,28.4052578 L9.52380952,29.3005956 C9.3427581,29.4568451 9.26339302,29.699901 9.32043683,29.9330356 C9.375,30.1636908 9.55605143,30.3447422 9.78918667,30.401786 C10.0198413,30.4563492 10.2628971,30.3769841 10.4191467,30.1959327 L11.3144844,29.3005956 C11.5302578,29.050099 11.5153771,28.6731149 11.2797619,28.4399803 C11.0466273,28.2043651 10.6721232,28.1894844 10.4191467,28.4052578 L10.3943454,28.4052578 Z" />
      <path
         fill="#425080"
         id="path871"
         d="M12.6339289,30.6473213 L11.7385911,31.542659 C11.4905752,31.7906749 11.4880952,32.1924603 11.7361111,32.4404762 C11.984127,32.6909721 12.385913,32.6909721 12.6339289,32.4454368 L13.529266,31.550099 C13.74504,31.2971232 13.7301587,30.922619 13.4970241,30.6870038 C13.2614089,30.4538692 12.8869048,30.4389879 12.6339289,30.6547619 L12.6339289,30.6473213 Z" />
      <path
         fill="#425080"
         id="path873"
         d="M14.8834324,32.8943454 L13.968254,33.7896825 C13.7872025,33.9459327 13.7078375,34.1889879 13.7648813,34.4221232 C13.8194444,34.6527778 14.0004959,34.8338292 14.2336311,34.890873 C14.4642857,34.9454368 14.7073416,34.8660717 14.8635911,34.6850197 L15.7589289,33.7896825 C15.9747022,33.5391867 15.9598216,33.1622025 15.7242063,32.9290673 C15.4910717,32.6934527 15.1165676,32.6785714 14.8635911,32.8943454 L14.8834324,32.8943454 Z" />
      <path
         fill="#425080"
         id="path875"
         d="M17.1428571,35.1364089 L16.24752,36.031746 C15.9995041,36.2797619 15.9970241,36.6815479 16.24504,36.9295638 C16.4905752,37.1800597 16.8948413,37.1800597 17.1428571,36.9345238 L18.0381943,36.0391867 C18.2862102,35.7911708 18.2886908,35.3893848 18.0406749,35.1388889 C17.795139,34.890873 17.390873,34.888393 17.1428571,35.1364089 Z" />
      <path
         fill="#425080"
         id="path879"
         d="M38.6855162,8.25396825 L35.3472222,8.49454349 L35.1562502,6.74851175 C35.0248019,5.56547619 34.0922622,4.63045651 32.906746,4.50148825 L31.2896825,4.32291683 L31.7460317,1.36408762 C31.7981149,1.01438476 31.5575397,0.687004 31.2053575,0.634920635 C30.8556546,0.58283727 30.5282737,0.823412698 30.4761905,1.17559556 L30.0124006,4.18402794 L20.7738095,3.17460317 C20.0074406,3.0902781 19.2435517,3.35813524 18.6979168,3.90377016 L0.920139048,21.6815479 C0.443948571,22.1577384 0.176091429,22.8050597 0.176091429,23.4796629 C0.176091429,24.154266 0.443948571,24.7991073 0.920139048,25.2752978 L14.4122025,38.7301587 C14.888393,39.2063492 15.5357143,39.4742063 16.2103175,39.4742063 C16.8824406,39.4742063 17.5297619,39.2063492 18.0059524,38.7301587 L35.7837302,20.952381 C36.3293651,20.406746 36.5997022,19.6428571 36.5153771,18.8764883 L35.4861111,9.75942476 L38.7748019,9.52380952 C39.1245041,9.49900825 39.3898813,9.19394857 39.3650794,8.84424635 C39.3402781,8.49454349 39.0352184,8.22916698 38.6855162,8.25396825 Z M35.2306546,19.0153771 C35.2728178,19.3973213 35.1413689,19.779266 34.8710317,20.0496032 L17.093254,37.827381 C16.8526787,38.0679562 16.5302578,38.2018851 16.1929562,38.2018851 C15.8556546,38.2018851 15.5332343,38.0679562 15.295139,37.827381 L1.8402781,24.3427581 C1.60218286,24.1046629 1.46825397,23.7822419 1.46825397,23.4449403 C1.46825397,23.1076387 1.60218286,22.7852184 1.8402781,22.5471232 L19.6180559,4.7693454 C19.8586311,4.55357143 20.1736114,4.43700381 20.4960317,4.44444444 L20.6349206,4.44444444 L32.7628971,5.76388889 C33.3531746,5.83085333 33.8219244,6.29712317 33.8864089,6.88988127 L34.077381,8.59126984 L32.172619,8.7227181 C31.6220241,7.57192444 30.3025797,7.00644825 29.0897816,7.40327365 C27.8745041,7.80009905 27.1453371,9.03769841 27.3834324,10.2901784 C27.6215276,11.545139 28.7549606,12.4280756 30.0297619,12.3511905 C31.3045638,12.276786 32.3239086,11.2673613 32.4131943,9.99255937 L34.2212305,9.86607175 L35.2306546,19.0153771 Z M31.25,9.80902794 C31.25,10.4613098 30.7911708,11.0218254 30.1512895,11.1483137 C29.5138889,11.2748019 28.8740083,10.9350197 28.6235117,10.3323416 C28.3754959,9.73214286 28.5863098,9.03769841 29.1269841,8.67559556 C29.667659,8.31349206 30.3893848,8.38293651 30.8506946,8.84424635 C31.1086311,9.09970222 31.25248,9.44692444 31.25,9.80902794 Z" />
    </g>
  </g>
</svg>
