<?xml version="1.0" encoding="UTF-8" standalone="no"?>
<svg width="18px" height="20px" viewBox="0 0 18 20" version="1.1" xmlns="http://www.w3.org/2000/svg" xmlns:xlink="http://www.w3.org/1999/xlink">
    <!-- Generator: Sketch 48.2 (47327) - http://www.bohemiancoding.com/sketch -->
    <title>certified</title>
    <desc>Created with Sketch.</desc>
    <defs></defs>
    <g id="Artboard" stroke="none" stroke-width="1" fill="none" fill-rule="evenodd" transform="translate(-1298.000000, -1531.000000)">
        <g id="certified" transform="translate(1297.000000, 1531.000000)">
            <rect id="bounds" x="0" y="0" width="20" height="20"></rect>
            <g id="icons8-certificate" transform="translate(1.000000, 0.000000)" fill="#425080" fill-rule="nonzero">
                <path d="M8.37828947,0.922619048 C8.18955568,0.922619048 8.01562547,0.98958381 7.875,1.13095238 L6.54276316,2.38095238 L5.03289474,2.08333333 C4.55921053,1.98660762 4.27055968,2.29910762 4.17434211,2.67857143 L3.87828947,4.375 L2.27960526,5.14880952 C1.90213863,5.3385419 1.79481884,5.72172667 1.98355263,6.10119048 L2.75328947,7.61904762 L1.98355263,9.13690476 C1.79481884,9.51636952 1.99465484,9.89955333 2.27960526,10.0892857 L3.87828947,10.8630952 L4.17434211,12.5595238 C4.27055968,12.9389886 4.65542811,13.2514886 5.03289474,13.1547619 L6.80921053,12.8571429 L8.14144737,14.1071429 C8.42639779,14.393601 8.89268116,14.393601 9.17763158,14.1071429 L10.5098684,12.8571429 L12.3157895,13.1547619 C12.6932571,13.2514886 13.0781255,12.9389886 13.1743421,12.5595238 L13.4407895,10.8630952 L15.0690789,10.0892857 C15.4465465,9.89955333 15.5242601,9.51636952 15.3355263,9.13690476 L14.2993421,7.61904762 L15.0690789,6.10119048 C15.2578127,5.72172667 15.1504939,5.3385419 14.7730263,5.14880952 L13.1743421,4.375 L12.8782895,2.67857143 C12.7820728,2.29910762 12.3972044,1.98660762 12.0197368,2.08333333 L10.2434211,2.38095238 L8.91118421,1.13095238 C8.77055968,0.98958381 8.56702326,0.922619048 8.37828947,0.922619048 Z M2.93092105,11.5178571 L0,17.4404762 L3.40460526,16.9642857 L5.12171053,20 L7.57894737,14.9404762 L7.40131579,14.7619048 L6.45394737,13.8988095 L5.12171053,14.1071429 C4.27055968,14.2038695 3.41570747,13.6235124 3.22697368,12.7678571 L3.01973684,11.5178571 L2.93092105,11.5178571 Z M14.1217105,11.5178571 L13.8256579,12.7678571 C13.6369241,13.5305057 12.9856083,14.1071429 12.2269737,14.1071429 L12.0197368,14.1071429 L10.7171053,13.8988095 L9.76973684,14.7619048 L9.5625,14.9404762 L12.0197368,20 L13.7368421,17.0535714 L17.1414474,17.5297619 L14.1217105,11.5178571 Z" id="Shape"></path>
            </g>
        </g>
    </g>
</svg>